<?xml version="1.0" standalone="no"?><!DOCTYPE svg PUBLIC "-//W3C//DTD SVG 1.1//EN" "http://www.w3.org/Graphics/SVG/1.1/DTD/svg11.dtd"><svg t="1570515826277" class="icon" viewBox="0 0 1024 1024" version="1.1" xmlns="http://www.w3.org/2000/svg" p-id="3814" xmlns:xlink="http://www.w3.org/1999/xlink" width="200" height="200"><defs><style type="text/css"></style></defs><path d="M400.726086 508.63559c40.034223 10.29645 79.436207 6.638501 117.099537-10.18355 50.511312-22.354135 89.868137-57.127233 118.386593-102.919338 31.228049-50.082293 38.792326-103.890276 20.41226-159.685292-23.437971-71.284851-69.907475-123.986417-141.372966-154.762867C490.368423 70.404234 463.949901 64.510871 436.312062 67.739802c-24.928247 2.867652-49.156516 8.828754-71.962249 19.418743-41.366439 19.238104-75.371819 47.237222-100.977464 83.997354-26.508842 37.821389-40.124542 79.684587-40.440662 125.341213-0.13548 36.602073 8.490055 71.126792 27.095921 102.919338C283.739449 456.792062 335.447497 491.949019 400.726086 508.63559zM1001.262007 743.918501c0-3.54505-0.248379-7.112679-1.670915-10.612569-3.116031-9.641632-12.531863-18.718765-25.199206-18.222007-12.396384 0.406439-24.973407 0-37.347211 0.13548-2.506373 0-3.40957-0.835458-4.448247-2.799912-4.674046-11.041588-9.731951-22.308975-14.744697-33.553782-0.677398-1.828975-0.587078-2.596692 0.790298-3.951488 8.964234-8.490055 18.154267-16.98011 27.18624-25.560485 2.822492-3.070871 5.532084-6.412701 6.9772-10.18355 3.54505-9.641632 0.677398-17.951047-6.615921-24.928247-10.951268-10.431929-21.676736-20.886439-32.673164-31.273208-1.874135-1.625755-3.748269-3.27409-5.825623-4.357927-10.40935-5.870783-22.399294-4.086968-30.77645 4.628886-8.602955 8.693275-17.22849 17.409129-25.583065 26.260463-0.564498 0.677398-1.083837 1.467696-1.670915 2.257993-0.248379-0.270959-0.406439-0.654818-0.406439-1.038677-12.418964-4.877266-24.860507-9.890011-37.234311-14.676957-2.122514-0.722558-2.754752-1.761235-2.754752-3.906329 0.13548-12.622183 0.13548-25.266946 0.13548-37.866549 0-4.041808-1.083837-7.902977-3.34183-11.199647-6.119162-9.009394-14.902756-13.231841-25.876604-13.299581-15.286615-0.203219-30.392591-0.203219-45.679206 0-3.748269 0-7.338479 0.519338-10.770628 1.490276-10.16097 2.912811-19.825182 12.148004-19.192944 24.431488 0.451599 11.967365 0 24.02505 0 36.060154 0.13548 2.348313-0.790298 3.36441-2.912811 4.245028-11.583506 4.741786-23.234752 9.370673-34.840838 14.293098-1.874135 0.632238-2.845072 0.564498-4.245028-0.745138-8.625535-8.873914-17.499449-17.702668-26.486262-26.531422-10.657729-10.544829-25.221786-10.680309-36.105314-0.338699-11.086748 10.589989-21.834796 21.292878-32.808644 32.108666-10.838368 10.725469-10.454509 25.131466 0.880617 35.292437 9.257773 8.196516 18.334906 16.393032 27.29914 24.725028 0.474179 0.406439 0.948357 1.106417 1.603175 1.625755-1.264476 2.280573-2.393473 4.245028-3.34183 6.570761-4.312767 9.664212-8.286836 19.531643-12.554443 29.263594-0.880617 1.761235-1.806395 2.551533-3.996648 2.551533-13.073782-0.09032-26.350783 0-39.356825 0-4.109548 0-7.993297 0.903197-11.606086 3.070871-9.370673 6.028842-13.75118 14.518897-13.75118 25.154046-0.1129 14.699537-0.180639 29.331334 0 44.121191 0.06774 3.34183 0.541918 6.81914 1.625755 10.16097 3.025711 9.686792 12.531863 18.899405 25.334686 18.492966 12.554443-0.519338 24.837927-0.13548 37.48269-0.13548 2.303153 0 3.29667 0.677398 4.245028 2.641852 4.922426 11.357707 9.799691 22.602514 14.835017 33.666681 0.722558 1.964454 0.587078 2.799912-0.722558 4.041808-9.122293 8.490055-18.222007 16.776891-27.3443 25.560485-2.732172 2.912811-5.599824 6.322381-6.999779 10.16097-3.49989 9.483572-0.474179 18.018787 6.72882 24.883087 10.815788 10.567409 21.654157 20.931599 32.763484 31.205469 1.670915 1.670915 3.590209 3.25151 5.599824 4.583727 10.589989 5.667563 22.376714 3.793429 30.86677-4.741786 9.302933-9.370673 18.402646-18.809085 27.592679-28.270077 2.416053 1.174157 4.515987 2.257993 6.66108 3.116031 10.18355 4.086968 20.34452 8.219096 30.415171 12.170584 2.077354 0.699978 3.070871 1.738655 2.912811 4.154708l0 37.61817 104.770893-0.993517c-0.406439-11.899625 0-23.88957-0.1129-36.037574 0-2.280573 0.632238-3.34183 3.025711-4.154708 11.448026-4.741786 23.121852-9.370673 34.637619-14.270518 2.167674-0.632238 2.912811-0.632238 4.290187 0.745138 8.738434 8.941654 17.747828 17.770408 26.734642 26.554002 10.16097 9.777111 23.91215 10.838368 34.27634 1.467696 12.328644-11.289967 24.476648-23.008953 36.014994-35.134377 9.686792-9.957751 8.241676-24.00247-1.964454-33.395722-9.190033-8.196516-18.063947-16.528512-27.25398-24.679868-0.677398-0.632238-1.558015-1.151577-2.077354-1.399956 1.490276-3.116031 2.867652-5.374024 3.861169-7.812657 4.154708-9.302933 8.083616-18.899405 12.080265-28.360397 0.835458-2.032194 1.828975-2.822492 4.290187-2.822492 13.028622 0.15806 26.147563 0 39.063286 0 4.245028 0 8.083616-0.925777 11.764146-3.206351 9.325513-5.938523 13.57054-14.518897 13.70602-25.108886C1001.420066 773.227255 1001.420066 758.730937 1001.262007 743.918501zM757.082602 871.585447c-60.920662 0.203219-110.573936-47.553341-110.573936-106.080529-0.248379-58.865888 49.427475-106.554708 110.461036-106.554708 60.604542 0 110.032018 47.553341 110.144917 106.148269C867.182359 823.625667 817.845204 871.585447 757.082602 871.585447zM514.461213 612.412966c5.193385-8.467475 9.302933-17.815568 12.328644-27.502359 3.703109-10.793208-0.970937-17.16075-12.486703-19.238104-5.170805-0.903197-10.589989-1.490276-15.918853-1.490276-40.91484-0.180639-122.83484-1.106417-122.83484-1.625755-34.434399 0.519338-68.959118 0.519338-103.348357 1.670915-17.792988 0.609658-35.721455 1.580595-53.130584 4.583727-57.556251 10.25129-97.409835 42.563175-118.318853 94.858302-14.902756 37.189151-27.028181 75.710518-39.921323 113.735127-6.548181 19.260684-13.073782 38.385888-17.792988 58.278809-5.328864 22.015436 1.196736 31.973186 23.528291 38.905226 18.199427 5.509504 36.624653 9.573892 55.749857 11.199647 31.024829 2.641852 62.027078 5.915943 92.961588 8.580375 31.566748 2.664432 63.110915 4.877266 94.587343 7.812657 40.440662 3.47731 80.949063 6.299802 121.615524 4.990165 8.761014-0.406439 17.657508-1.196736 26.237883-2.732172 10.431929-2.122514 15.083396-8.625535 14.676957-18.786505-0.1129-4.154708-0.654818-7.857817-1.399956-11.944785-3.228931-17.544609-7.270739-34.727938-9.777111-52.340287-6.344961-45.159868-0.699978-89.371378 14.631797-132.589372C485.468578 661.817861 499.490717 637.025094 514.461213 612.412966z" p-id="3815"></path></svg>