<?xml version="1.0" standalone="no"?><!DOCTYPE svg PUBLIC "-//W3C//DTD SVG 1.1//EN" "http://www.w3.org/Graphics/SVG/1.1/DTD/svg11.dtd"><svg t="1568776442742" class="icon" viewBox="0 0 1063 1024" version="1.1" xmlns="http://www.w3.org/2000/svg" p-id="6018" xmlns:xlink="http://www.w3.org/1999/xlink" width="207.6171875" height="200"><defs><style type="text/css"></style></defs><path d="M621.01746283 551.69568565l-178.54391338 178.89060058c-36.22881357 35.53543916-93.95223398 37.09553115-132.08782765 3.64021611-38.13559365-33.62865908-44.02927617-90.83204912-13.3474579-131.39445322l-60.67026211-60.67026211C167.55059075 615.83281982 171.5374932 731.45300469 245.20852601 800.27041573s189.29121768 64.83050859 258.1086287-8.84052335l178.89060059-178.89060146-61.19029247-60.84360527zM168.41730833 877.58166377z m-84.41833536 0c0 46.62942979 37.78890645 84.41833623 84.41833536 84.41833623 46.62942979 0 84.41833623-37.78890645 84.41833623-84.41833623 0-46.62942979-37.78890645-84.41833623-84.41833623-84.41833535-46.62942979 0.17334404-84.41833623 37.78890645-84.41833536 84.41833535M168.41730833 146.41833623z m-84.41833536 0c0 46.62942979 37.78890645 84.41833623 84.41833536 84.41833535 46.62942979 0 84.41833623-37.78890645 84.41833623-84.41833535S215.046739 62 168.41730833 62C121.78787854 62 83.99897297 99.78890645 83.99897297 146.41833623" p-id="6019"></path><path d="M254.91576781 480.79815136l178.89060058 178.89060059 60.67026211-60.67026211-179.2372878-178.54391338c-35.53543916-36.22881357-37.09553115-93.95223398-3.64021611-132.08782763 33.62865908-38.13559365 90.83204912-44.02927617 131.39445322-13.34745791l60.67026211-60.67026123C429.99280911 145.55161778 314.37262425 149.53852109 245.55521322 223.20955302s-64.83050859 189.29121768 8.84052422 258.10862872l0.52003036-0.52003038zM899.58063675 146.41833623z m-84.41833535 0c0 46.62942979 37.78890645 84.41833623 84.41833535 84.41833535 46.62942979 0 84.41833623-37.78890645 84.41833622-84.41833535S946.21006653 62 899.58063675 62c-46.62942979 0-84.41833623 37.78890645-84.41833535 84.41833623" p-id="6020"></path><path d="M446.98048313 472.30431435l178.89060059-178.89060058c36.22881357-35.53543916 93.95223398-37.09553115 132.08782763-3.64021611 38.13559365 33.62865908 44.02927617 90.83204912 13.34745704 131.39445322l60.67026211 60.67026211c68.81741104-73.67103193 64.83050859-189.29121768-8.84052334-258.10862872-73.49768877-68.81741104-189.11787364-64.83050859-257.93528555 8.84052335L386.31022103 411.46070908l60.6702621 60.84360527zM899.58063675 877.58166377z m-84.41833535 0c0 46.62942979 37.78890645 84.41833623 84.41833535 84.41833623 46.62942979 0 84.41833623-37.78890645 84.41833622-84.41833623 0-46.62942979-37.78890645-84.41833623-84.41833622-84.41833535-46.62942979 0.17334404-84.41833623 37.78890645-84.41833535 84.41833535" p-id="6021"></path><path d="M813.08217727 543.20184864l-178.54391337-178.89060059-60.67026211 60.67026211 178.89060146 178.89060058c35.53543916 36.22881357 37.09553115 93.95223398 3.64021524 132.08782764-33.62865908 38.13559365-90.83204912 44.02927617-131.39445323 13.3474579l-60.67026123 60.32357403c73.67103193 68.81741104 189.29121768 64.83050859 258.10862872-8.84052334s64.83050859-189.29121768-8.84052423-258.10862871l-0.52003125 0.52003038z" p-id="6022"></path></svg>